<svg width="27" height="28" viewBox="0 0 27 28" fill="none" xmlns="http://www.w3.org/2000/svg">
<path d="M17.75 6.25024C15.5 6.25024 15.5 7.00024 13.25 7.00024C11 7.00024 11 6.25024 8.75 6.25024C5.75 6.25024 2 7.75023 2 13.0002C2 21.2501 6.5 28.0001 9.5 28.0001C11.75 28.0001 11.75 27.2501 13.25 27.2501C14.75 27.2501 14.75 28.0001 17 28.0001C20 28.0001 24.5 21.2501 24.5 13.0002C24.5 7.74948 20.75 6.25024 17.75 6.25024Z" fill="#DD2E44"/>
<path d="M14 6.25022C14 6.25022 16.25 3.25024 20 3.25024C23 3.25024 24.5 4.75023 24.5 4.75023C24.5 4.75023 21.5 7.00022 19.25 7.00022C17 7.00022 14 6.25022 14 6.25022Z" fill="#77B255"/>
<path d="M13.25 8.50014C12.836 8.50014 12.5 8.16414 12.5 7.75014C12.5 5.16941 13.4 2.78893 14.9697 1.21994C15.263 0.926688 15.737 0.926688 16.0303 1.21994C16.3235 1.51318 16.3235 1.98793 16.0303 2.28043C14.7395 3.57042 14 5.56391 14 7.75014C14 8.16414 13.664 8.50014 13.25 8.50014Z" fill="#662113"/>
</svg>
