<svg width="300" height="300" viewBox="0 0 300 300" fill="none" xmlns="http://www.w3.org/2000/svg">
<path d="M79.1175 108.171C94.693 106.275 105.782 92.1118 103.887 76.5364C101.991 60.9609 87.8274 49.8714 72.252 51.7673C56.6765 53.6632 45.587 67.8265 47.4829 83.4019C49.3788 98.9774 63.5421 110.067 79.1175 108.171Z" fill="black"/>
<path d="M91.024 95.3086C99.4944 86.8382 99.4944 73.1048 91.024 64.6343C82.5535 56.1639 68.8202 56.1639 60.3497 64.6343C51.8792 73.1048 51.8792 86.8382 60.3497 95.3086C68.8201 103.779 82.5535 103.779 91.024 95.3086Z" fill="white"/>
<path d="M75.684 95.472C84.2433 95.472 91.182 88.5333 91.182 79.974C91.182 71.4147 84.2433 64.476 75.684 64.476C67.1247 64.476 60.186 71.4147 60.186 79.974C60.186 88.5333 67.1247 95.472 75.684 95.472Z" fill="black"/>
<path d="M77.6731 88.3032C82.2768 87.209 85.1218 82.5899 84.0276 77.9862C82.9334 73.3824 78.3143 70.5374 73.7106 71.6316C69.1068 72.7258 66.2618 77.3449 67.356 81.9487C68.4502 86.5524 73.0693 89.3974 77.6731 88.3032Z" fill="white"/>
<path d="M71.814 79.974C71.8152 80.7392 72.0432 81.4868 72.4691 82.1224C72.8951 82.758 73.4999 83.2531 74.2072 83.5451C74.9144 83.8371 75.6924 83.9129 76.4427 83.7629C77.193 83.6129 77.882 83.2439 78.4226 82.7024C78.9632 82.1609 79.3312 81.4713 79.4801 80.7208C79.6289 79.9703 79.5519 79.1924 79.2588 78.4856C78.9657 77.7788 78.4697 77.1748 77.8334 76.7498C77.1971 76.3248 76.4492 76.098 75.684 76.098C75.1753 76.098 74.6715 76.1983 74.2016 76.3932C73.7317 76.588 73.3048 76.8736 72.9454 77.2336C72.5859 77.5936 72.301 78.021 72.1069 78.4912C71.9127 78.9614 71.8132 79.4653 71.814 79.974Z" fill="black"/>
<path d="M36.8849 40.2863L36.0024 41.1688L72.7182 77.8846L73.6007 77.0022L36.8849 40.2863Z" fill="#A6A6A6"/>
<path d="M70.884 78.684L75.684 79.974L74.4 75.174L70.884 78.684Z" fill="#A6A6A6"/>
<path d="M30.3 38.34L37.182 45.222L42.582 46.872L40.932 41.472L34.05 34.584L35.7 39.984L30.3 38.34Z" fill="#A6A6A6"/>
<path d="M202.842 33.234L204.834 36.204L208.278 37.182L206.07 39.99L206.202 43.566L202.842 42.336L199.488 43.566L199.62 39.99L197.412 37.182L200.85 36.204L202.842 33.234Z" fill="black"/>
<path d="M218.202 33.234L220.194 36.204L223.632 37.182L221.424 39.99L221.556 43.566L218.202 42.336L214.848 43.566L214.98 39.99L212.772 37.182L216.21 36.204L218.202 33.234Z" fill="black"/>
<path d="M233.556 33.234L235.548 36.204L238.986 37.182L236.778 39.99L236.916 43.566L233.556 42.336L230.202 43.566L230.334 39.99L228.126 37.182L231.564 36.204L233.556 33.234Z" fill="black"/>
<path d="M248.916 33.234L250.908 36.204L254.346 37.182L252.138 39.99L252.27 43.566L248.916 42.336L245.556 43.566L245.694 39.99L243.486 37.182L246.924 36.204L248.916 33.234Z" fill="black"/>
<path d="M260.598 43.998L260.748 40.092L258.348 37.014L262.11 35.946L264.288 32.694L266.472 35.946L270.234 37.014L267.834 40.092L267.978 43.998L264.306 42.654L260.598 43.998ZM264.27 42L267.312 43.116L267.192 39.882L269.19 37.332L266.076 36.45L264.276 33.762L262.476 36.45L259.362 37.332L261.36 39.882L261.24 43.116L264.27 42Z" fill="black"/>
<path d="M264.27 42.336V33.234L262.278 36.204L258.84 37.182L261.048 39.99L260.916 43.566L264.27 42.336Z" fill="black"/>
<path fill-rule="evenodd" clip-rule="evenodd" d="M243.454 101.718C242.692 101.244 242.026 100.554 241.012 100.656C240.622 100.698 240.706 100.374 240.706 100.158C240.706 96.3338 240.69 92.5138 240.658 88.6978C240.658 88.4218 240.658 88.1877 240.976 88.0378C243.892 86.5557 245.146 83.6577 246.928 81.1737C247.839 79.9411 248.494 78.5379 248.852 77.0476C249.211 75.5572 249.267 74.01 249.016 72.4978C248.89 71.6398 249.286 71.2498 250.06 71.0758C250.996 70.8598 251.926 71.1118 252.244 71.7538C253.09 73.3099 253.661 75.0009 253.93 76.7518C254.104 78.2038 253.588 79.6138 253.414 81.0478C253.282 82.0978 253.042 83.1358 252.844 84.1978C253.102 84.3838 253.396 84.2878 253.672 84.2938H263.356C264.718 84.2938 265.384 84.6778 265.576 85.5778C265.682 86.1327 265.603 86.7071 265.352 87.2131C265.1 87.7191 264.69 88.1289 264.184 88.3798C263.938 88.5058 263.506 88.3798 263.476 88.7758C263.446 89.1718 263.896 89.1177 264.118 89.2737C265.318 90.0717 265.078 91.7218 263.734 92.6877C263.404 92.9158 262.774 92.8077 262.762 93.2878C262.762 93.6658 263.362 93.6598 263.614 93.9298C264.562 94.8598 264.1 96.5998 262.69 97.3078C262.497 97.3682 262.308 97.4424 262.126 97.5298C261.964 97.6378 261.808 97.7578 262.126 97.9798C263.524 98.9698 263.5 100.38 262.096 101.382L261.676 101.682C261.167 101.992 260.57 102.125 259.978 102.06C254.914 102.088 249.852 102.106 244.792 102.114C244.554 102.14 244.313 102.119 244.083 102.051C243.853 101.983 243.639 101.869 243.454 101.718Z" fill="black"/>
<path fill-rule="evenodd" clip-rule="evenodd" d="M229.036 95.0277C229.036 92.6277 229.036 90.1738 229 87.7438C229 87.2518 229.048 87.0057 229.654 87.0117C232.618 87.0437 235.578 87.0437 238.534 87.0117C239.134 87.0117 239.206 87.2037 239.206 87.7197C239.206 92.6037 239.222 97.4878 239.254 102.372C239.254 102.972 239.092 103.17 238.468 103.164C235.6 103.164 232.726 103.164 229.852 103.2C229.138 103.2 229.042 102.96 229.048 102.336C229.072 99.8818 229.042 97.4577 229.036 95.0277Z" fill="black"/>
<path d="M118.626 268.164H40.026C39.6091 268.164 39.2092 267.998 38.9144 267.704C38.6196 267.409 38.454 267.009 38.454 266.592V257.226C38.454 257.196 38.454 257.166 38.454 257.136C38.454 257.106 38.454 257.028 38.454 256.968L48 222.078L35.694 145.8L31.584 144.372C31.2246 144.224 30.9326 143.949 30.7645 143.598C30.5964 143.248 30.564 142.848 30.6736 142.475C30.7832 142.102 31.0271 141.783 31.3581 141.579C31.6891 141.376 32.0838 141.302 32.466 141.372L37.536 143.082C37.8232 143.166 38.0804 143.33 38.2771 143.556C38.4738 143.781 38.6018 144.058 38.646 144.354L51.15 221.874C51.1831 222.048 51.1831 222.228 51.15 222.402L41.922 255.834L115.122 261.036C115.528 261.064 115.908 261.247 116.184 261.546L119.784 265.542C119.987 265.768 120.119 266.047 120.167 266.346C120.214 266.646 120.174 266.953 120.051 267.23C119.928 267.507 119.727 267.743 119.473 267.908C119.22 268.074 118.923 268.163 118.62 268.164H118.626ZM41.616 265.026H115.086L114.276 264.126L41.616 258.96V265.026Z" fill="black"/>
<path d="M147.396 170.586H41.472C41.2578 170.599 41.0431 170.569 40.8413 170.496C40.6394 170.423 40.4546 170.309 40.2982 170.162C40.1419 170.015 40.0172 169.838 39.9321 169.641C39.8469 169.444 39.8029 169.232 39.8029 169.017C39.8029 168.802 39.8469 168.59 39.9321 168.393C40.0172 168.196 40.1419 168.019 40.2982 167.872C40.4546 167.725 40.6394 167.611 40.8413 167.538C41.0431 167.465 41.2578 167.435 41.472 167.448H147.396C147.61 167.435 147.825 167.465 148.027 167.538C148.229 167.611 148.413 167.725 148.57 167.872C148.726 168.019 148.851 168.196 148.936 168.393C149.021 168.59 149.065 168.802 149.065 169.017C149.065 169.232 149.021 169.444 148.936 169.641C148.851 169.838 148.726 170.015 148.57 170.162C148.413 170.309 148.229 170.423 148.027 170.496C147.825 170.569 147.61 170.599 147.396 170.586Z" fill="black"/>
<path d="M49.596 222.636C49.4664 222.622 49.3466 222.561 49.2595 222.464C49.1724 222.367 49.1242 222.241 49.1242 222.111C49.1242 221.981 49.1724 221.855 49.2595 221.758C49.3466 221.661 49.4664 221.6 49.596 221.586L129.168 217.332L144.834 168.858C144.855 168.792 144.889 168.732 144.934 168.679C144.978 168.627 145.033 168.584 145.094 168.553C145.155 168.521 145.222 168.503 145.291 168.497C145.36 168.492 145.429 168.5 145.494 168.522C145.559 168.545 145.619 168.582 145.671 168.629C145.722 168.676 145.763 168.733 145.791 168.796C145.82 168.859 145.835 168.928 145.837 168.997C145.838 169.066 145.826 169.136 145.8 169.2L130.02 218.016C129.988 218.117 129.927 218.207 129.843 218.272C129.76 218.337 129.658 218.376 129.552 218.382L49.626 222.63L49.596 222.636Z" fill="black"/>
<path d="M130.896 213.984H48.144C48.0056 213.984 47.8728 213.929 47.7749 213.831C47.677 213.733 47.622 213.6 47.622 213.462C47.622 213.324 47.677 213.191 47.7749 213.093C47.8728 212.995 48.0056 212.94 48.144 212.94H130.896C131.034 212.94 131.167 212.995 131.265 213.093C131.363 213.191 131.418 213.324 131.418 213.462C131.418 213.6 131.363 213.733 131.265 213.831C131.167 213.929 131.034 213.984 130.896 213.984Z" fill="black"/>
<path d="M133.002 207.6H47.166C47.0276 207.6 46.8948 207.545 46.7969 207.447C46.699 207.349 46.644 207.216 46.644 207.078C46.644 206.94 46.699 206.807 46.7969 206.709C46.8948 206.611 47.0276 206.556 47.166 206.556H133.002C133.14 206.556 133.273 206.611 133.371 206.709C133.469 206.807 133.524 206.94 133.524 207.078C133.524 207.216 133.469 207.349 133.371 207.447C133.273 207.545 133.14 207.6 133.002 207.6Z" fill="black"/>
<path d="M134.946 201.258H46.2C46.0704 201.244 45.9506 201.183 45.8635 201.086C45.7764 200.989 45.7282 200.863 45.7282 200.733C45.7282 200.603 45.7764 200.477 45.8635 200.38C45.9506 200.283 46.0704 200.222 46.2 200.208H134.946C135.02 200.2 135.094 200.208 135.165 200.231C135.235 200.253 135.3 200.291 135.355 200.34C135.41 200.39 135.454 200.45 135.484 200.518C135.515 200.586 135.53 200.659 135.53 200.733C135.53 200.807 135.515 200.88 135.484 200.948C135.454 201.016 135.41 201.076 135.355 201.126C135.3 201.175 135.235 201.213 135.165 201.235C135.094 201.258 135.02 201.266 134.946 201.258Z" fill="black"/>
<path d="M137.058 194.892H45.222C45.1483 194.9 45.0738 194.892 45.0034 194.869C44.9329 194.847 44.868 194.809 44.8129 194.76C44.7578 194.71 44.7137 194.65 44.6835 194.582C44.6534 194.514 44.6378 194.441 44.6378 194.367C44.6378 194.293 44.6534 194.22 44.6835 194.152C44.7137 194.084 44.7578 194.024 44.8129 193.974C44.868 193.925 44.9329 193.887 45.0034 193.865C45.0738 193.842 45.1483 193.834 45.222 193.842H137.058C137.188 193.856 137.307 193.917 137.395 194.014C137.482 194.111 137.53 194.237 137.53 194.367C137.53 194.497 137.482 194.623 137.395 194.72C137.307 194.817 137.188 194.878 137.058 194.892Z" fill="black"/>
<path d="M139.068 188.526H44.268C44.1296 188.526 43.9968 188.471 43.8989 188.373C43.801 188.275 43.746 188.142 43.746 188.004C43.746 187.866 43.801 187.733 43.8989 187.635C43.9968 187.537 44.1296 187.482 44.268 187.482H139.068C139.206 187.482 139.339 187.537 139.437 187.635C139.535 187.733 139.59 187.866 139.59 188.004C139.59 188.142 139.535 188.275 139.437 188.373C139.339 188.471 139.206 188.526 139.068 188.526Z" fill="black"/>
<path d="M141.228 182.16H43.272C43.1336 182.16 43.0008 182.105 42.9029 182.007C42.805 181.909 42.75 181.776 42.75 181.638C42.75 181.5 42.805 181.367 42.9029 181.269C43.0008 181.171 43.1336 181.116 43.272 181.116H141.228C141.366 181.116 141.499 181.171 141.597 181.269C141.695 181.367 141.75 181.5 141.75 181.638C141.75 181.776 141.695 181.909 141.597 182.007C141.499 182.105 141.366 182.16 141.228 182.16Z" fill="black"/>
<path d="M143.286 175.8H42.3C42.1616 175.8 42.0288 175.745 41.9309 175.647C41.833 175.549 41.778 175.416 41.778 175.278C41.778 175.14 41.833 175.007 41.9309 174.909C42.0288 174.811 42.1616 174.756 42.3 174.756H143.286C143.424 174.756 143.557 174.811 143.655 174.909C143.753 175.007 143.808 175.14 143.808 175.278C143.808 175.416 143.753 175.549 143.655 175.647C143.557 175.745 143.424 175.8 143.286 175.8Z" fill="black"/>
<path d="M56.742 222C56.6096 222 56.482 221.95 56.3851 221.86C56.2881 221.77 56.2291 221.646 56.22 221.514L52.2 169.056C52.1943 168.988 52.2022 168.919 52.2233 168.854C52.2444 168.789 52.2783 168.728 52.323 168.676C52.3677 168.624 52.4223 168.582 52.4836 168.551C52.5449 168.521 52.6116 168.503 52.68 168.498C52.8178 168.49 52.9536 168.535 53.0587 168.624C53.1639 168.714 53.2303 168.841 53.244 168.978L57.264 221.4C57.2739 221.538 57.229 221.673 57.1391 221.778C57.0491 221.883 56.9215 221.947 56.784 221.958L56.742 222Z" fill="black"/>
<path d="M121.62 218.55C121.576 218.556 121.532 218.556 121.488 218.55C121.354 218.513 121.24 218.426 121.17 218.305C121.101 218.185 121.081 218.042 121.116 217.908L134.442 168.9C134.479 168.766 134.566 168.652 134.687 168.582C134.807 168.513 134.95 168.493 135.084 168.528C135.15 168.546 135.212 168.577 135.266 168.619C135.321 168.661 135.366 168.713 135.4 168.773C135.434 168.833 135.456 168.898 135.465 168.967C135.473 169.035 135.468 169.104 135.45 169.17L122.13 218.178C122.096 218.286 122.028 218.381 121.936 218.447C121.844 218.514 121.734 218.55 121.62 218.55Z" fill="black"/>
<path d="M65.1 221.58C64.9631 221.578 64.8321 221.524 64.7347 221.428C64.6373 221.331 64.5811 221.201 64.578 221.064L63.282 169.032C63.2803 168.893 63.3326 168.76 63.4277 168.659C63.5229 168.558 63.6535 168.498 63.792 168.492C63.929 168.492 64.0606 168.545 64.1591 168.64C64.2576 168.735 64.3153 168.865 64.32 169.002L65.61 221.04C65.6132 221.179 65.5615 221.314 65.466 221.415C65.3705 221.516 65.239 221.575 65.1 221.58Z" fill="black"/>
<path d="M73.68 221.112C73.6114 221.11 73.5439 221.095 73.4811 221.068C73.4184 221.04 73.3617 221 73.3144 220.951C73.267 220.901 73.2299 220.843 73.2051 220.779C73.1803 220.715 73.1684 220.647 73.17 220.578L74.13 169.008C74.1331 168.871 74.1893 168.741 74.2867 168.644C74.3841 168.548 74.5151 168.494 74.652 168.492C74.7206 168.494 74.7881 168.509 74.8509 168.536C74.9136 168.564 74.9703 168.604 75.0176 168.653C75.065 168.703 75.1021 168.761 75.1269 168.825C75.1517 168.889 75.1636 168.957 75.162 169.026L74.202 220.626C74.1929 220.758 74.1339 220.882 74.0369 220.972C73.94 221.062 73.8124 221.112 73.68 221.112Z" fill="black"/>
<path d="M112.488 218.958H112.386C112.253 218.932 112.135 218.854 112.059 218.742C111.982 218.63 111.953 218.492 111.978 218.358L122.1 168.942C122.13 168.811 122.209 168.696 122.32 168.62C122.431 168.545 122.567 168.514 122.7 168.534C122.833 168.562 122.949 168.64 123.025 168.752C123.101 168.863 123.131 169.001 123.108 169.134L112.986 218.55C112.96 218.663 112.896 218.765 112.806 218.839C112.716 218.912 112.604 218.954 112.488 218.958Z" fill="black"/>
<path d="M102.084 219.6H102C101.864 219.576 101.742 219.5 101.661 219.388C101.581 219.276 101.547 219.137 101.568 219L109.764 168.96C109.787 168.824 109.864 168.703 109.976 168.623C110.089 168.543 110.228 168.511 110.364 168.534C110.432 168.545 110.496 168.569 110.555 168.605C110.613 168.641 110.663 168.689 110.703 168.745C110.742 168.801 110.771 168.864 110.786 168.931C110.8 168.997 110.802 169.067 110.79 169.134L102.6 219.144C102.583 219.269 102.521 219.384 102.427 219.468C102.332 219.551 102.21 219.598 102.084 219.6Z" fill="black"/>
<path d="M82.464 220.614H82.422C82.3536 220.609 82.2869 220.591 82.2256 220.561C82.1643 220.53 82.1097 220.488 82.065 220.436C82.0203 220.384 81.9864 220.323 81.9653 220.258C81.9442 220.193 81.9363 220.124 81.942 220.056L85.764 168.978C85.7743 168.84 85.8393 168.711 85.9445 168.62C86.0497 168.53 86.1866 168.485 86.325 168.495C86.4634 168.505 86.5921 168.57 86.6827 168.675C86.7733 168.781 86.8183 168.918 86.808 169.056L82.986 220.134C82.9741 220.265 82.9141 220.386 82.8176 220.475C82.7211 220.563 82.5951 220.613 82.464 220.614Z" fill="black"/>
<path d="M92.754 219.948H92.694C92.6239 219.94 92.556 219.918 92.4946 219.883C92.4331 219.848 92.3793 219.802 92.3362 219.746C92.2931 219.69 92.2617 219.626 92.2438 219.557C92.2259 219.489 92.2219 219.418 92.232 219.348L97.836 168.948C97.8435 168.88 97.8643 168.814 97.8973 168.754C97.9303 168.694 97.9748 168.641 98.0283 168.598C98.0818 168.555 98.1432 168.523 98.209 168.504C98.2749 168.485 98.3438 168.479 98.412 168.486C98.4801 168.494 98.5462 168.514 98.6063 168.547C98.6664 168.58 98.7194 168.625 98.7623 168.678C98.8052 168.732 98.8371 168.793 98.8563 168.859C98.8755 168.925 98.8815 168.994 98.874 169.062L93.27 219.462C93.2609 219.593 93.2028 219.716 93.1071 219.806C93.0115 219.896 92.8854 219.947 92.754 219.948Z" fill="black"/>
<path d="M50.226 276.336C53.4635 276.336 56.088 273.711 56.088 270.474C56.088 267.237 53.4635 264.612 50.226 264.612C46.9885 264.612 44.364 267.237 44.364 270.474C44.364 273.711 46.9885 276.336 50.226 276.336Z" fill="#263238"/>
<path d="M52.89 270.474C52.89 271.001 52.7338 271.516 52.441 271.954C52.1483 272.392 51.7322 272.734 51.2455 272.935C50.7587 273.137 50.223 273.19 49.7063 273.087C49.1895 272.984 48.7148 272.73 48.3423 272.358C47.9697 271.985 47.716 271.51 47.6132 270.994C47.5104 270.477 47.5632 269.941 47.7648 269.455C47.9664 268.968 48.3079 268.552 48.746 268.259C49.1841 267.966 49.6991 267.81 50.226 267.81C50.9325 267.81 51.6101 268.091 52.1097 268.59C52.6093 269.09 52.89 269.767 52.89 270.474Z" fill="black"/>
<path d="M102.684 276.336C105.921 276.336 108.546 273.711 108.546 270.474C108.546 267.237 105.921 264.612 102.684 264.612C99.4465 264.612 96.822 267.237 96.822 270.474C96.822 273.711 99.4465 276.336 102.684 276.336Z" fill="#263238"/>
<path d="M105.348 270.474C105.348 271.001 105.192 271.516 104.899 271.954C104.606 272.392 104.19 272.734 103.703 272.935C103.217 273.137 102.681 273.19 102.164 273.087C101.648 272.984 101.173 272.73 100.8 272.358C100.428 271.985 100.174 271.51 100.071 270.994C99.9684 270.477 100.021 269.941 100.223 269.455C100.424 268.968 100.766 268.552 101.204 268.259C101.642 267.966 102.157 267.81 102.684 267.81C103.391 267.81 104.068 268.091 104.568 268.59C105.067 269.09 105.348 269.767 105.348 270.474Z" fill="black"/>
<path d="M35.934 146.118C35.7169 146.119 35.5014 146.08 35.298 146.004L27.042 142.872C26.821 142.788 26.6187 142.661 26.4466 142.499C26.2745 142.337 26.136 142.143 26.0391 141.927C25.9422 141.712 25.8886 141.479 25.8816 141.243C25.8745 141.006 25.9141 140.771 25.998 140.55C26.0819 140.329 26.2085 140.127 26.3706 139.955C26.5328 139.782 26.7272 139.644 26.9428 139.547C27.1584 139.45 27.391 139.397 27.6273 139.39C27.8636 139.383 28.099 139.422 28.32 139.506L36.6 142.638C36.992 142.789 37.319 143.072 37.5242 143.438C37.7295 143.805 37.8001 144.232 37.7239 144.645C37.6477 145.058 37.4295 145.431 37.107 145.7C36.7845 145.969 36.378 146.117 35.958 146.118H35.934Z" fill="#88C653"/>
<path d="M29.148 276.336C106.548 275.97 193.428 275.964 270.852 276.336C193.452 276.708 106.572 276.702 29.148 276.336Z" fill="#263238"/>
<path d="M200.712 46.626H99.276C97.916 46.6386 96.5718 46.9189 95.3202 47.4509C94.0685 47.983 92.9339 48.7564 91.9812 49.727C91.0284 50.6975 90.2762 51.8463 89.7674 53.1076C89.2587 54.3689 89.0033 55.718 89.016 57.078V265.878C88.992 268.624 90.0591 271.267 91.983 273.227C93.9068 275.187 96.5299 276.303 99.276 276.33H200.712C203.459 276.303 206.084 275.187 208.009 273.228C209.935 271.269 211.005 268.625 210.984 265.878V57.078C211.006 54.3303 209.937 51.686 208.011 49.7262C206.085 47.7664 203.46 46.6514 200.712 46.626ZM204.564 259.428C204.564 264.924 200.448 269.37 195.372 269.37H104.628C99.54 269.37 95.424 264.924 95.424 259.428V64.992C95.424 53.796 99.54 53.25 104.628 53.25H122.808C123.864 53.25 124.728 54.45 124.728 55.938V56.58C124.728 60.066 126.636 60.078 128.976 60.078H171C173.364 60.078 175.26 60.078 175.26 56.58V55.938C175.26 54.45 176.112 53.25 177.186 53.25H195.36C200.436 53.25 204.552 54.738 204.552 64.992L204.564 259.428Z" fill="#263238"/>
<path d="M204.6 65.166V259.602C204.6 265.098 200.484 269.544 195.408 269.544H104.634C99.546 269.544 95.43 265.098 95.43 259.602V65.166C95.43 54 99.546 53.4 104.634 53.4H122.814C123.87 53.4 124.734 54.6 124.734 56.088V56.73C124.734 60.216 126.642 60.228 128.982 60.228H171C173.364 60.228 175.26 60.228 175.26 56.73V56.112C175.26 54.624 176.112 53.424 177.186 53.424H195.36C200.454 53.4 204.6 54.912 204.6 65.166Z" fill="white"/>
<path d="M155.73 55.722H144.264C144.076 55.722 143.896 55.6474 143.763 55.5146C143.631 55.3819 143.556 55.2018 143.556 55.014C143.556 54.8262 143.631 54.6461 143.763 54.5134C143.896 54.3806 144.076 54.306 144.264 54.306H155.73C155.918 54.306 156.098 54.3806 156.231 54.5134C156.363 54.6461 156.438 54.8262 156.438 55.014C156.438 55.2018 156.363 55.3819 156.231 55.5146C156.098 55.6474 155.918 55.722 155.73 55.722Z" fill="white"/>
<path d="M119.67 57.6L119.496 57.774L119.394 57.876C118.944 57.429 118.336 57.1781 117.702 57.1781C117.068 57.1781 116.46 57.429 116.01 57.876C115.975 57.845 115.943 57.8108 115.914 57.774C115.854 57.72 115.8 57.66 115.74 57.6C115.818 57.54 115.89 57.468 115.962 57.408C116.119 57.2767 116.293 57.1659 116.478 57.078C116.692 56.97 116.92 56.8932 117.156 56.85L117.498 56.808H117.798H118.026C118.231 56.83 118.433 56.8784 118.626 56.952C118.773 57.0057 118.916 57.072 119.052 57.15C119.193 57.2336 119.327 57.3279 119.454 57.432L119.64 57.6H119.67Z" fill="#A6A6A6"/>
<path d="M116.562 58.446C116.472 58.35 116.382 58.26 116.286 58.17C116.471 57.9837 116.691 57.8358 116.934 57.7349C117.176 57.634 117.436 57.5821 117.699 57.5821C117.962 57.5821 118.222 57.634 118.464 57.7349C118.707 57.8358 118.927 57.9837 119.112 58.17L118.836 58.446C118.534 58.1445 118.125 57.9751 117.699 57.9751C117.273 57.9751 116.864 58.1445 116.562 58.446Z" fill="#A6A6A6"/>
<path d="M118.56 58.722L118.284 58.998C118.129 58.8448 117.92 58.7589 117.702 58.7589C117.484 58.7589 117.275 58.8448 117.12 58.998C117.024 58.908 116.934 58.812 116.844 58.722C116.956 58.6077 117.089 58.5169 117.237 58.4549C117.384 58.3929 117.542 58.3609 117.702 58.3609C117.862 58.3609 118.02 58.3929 118.167 58.4549C118.315 58.5169 118.448 58.6077 118.56 58.722Z" fill="#A6A6A6"/>
<path d="M117.948 59.25C117.948 59.3152 117.922 59.3778 117.876 59.4239C117.83 59.4701 117.767 59.496 117.702 59.496C117.669 59.4968 117.637 59.491 117.606 59.479C117.575 59.467 117.548 59.449 117.524 59.4261C117.501 59.4032 117.482 59.3758 117.469 59.3455C117.457 59.3153 117.45 59.2828 117.45 59.25C117.45 59.1832 117.477 59.1191 117.524 59.0718C117.571 59.0245 117.635 58.998 117.702 58.998C117.735 58.998 117.767 59.0045 117.798 59.0173C117.828 59.03 117.855 59.0487 117.878 59.0722C117.901 59.0956 117.919 59.1235 117.931 59.154C117.943 59.1846 117.949 59.2172 117.948 59.25Z" fill="#A6A6A6"/>
<path d="M102.54 58.146C102.54 58.0024 102.583 57.862 102.662 57.7427C102.742 57.6233 102.856 57.5302 102.988 57.4753C103.121 57.4203 103.267 57.4059 103.408 57.434C103.548 57.462 103.678 57.5311 103.779 57.6326C103.881 57.7342 103.95 57.8635 103.978 58.0044C104.006 58.1452 103.992 58.2912 103.937 58.4238C103.882 58.5565 103.789 58.6699 103.669 58.7496C103.55 58.8294 103.41 58.872 103.266 58.872C103.073 58.872 102.889 58.7955 102.753 58.6594C102.616 58.5232 102.54 58.3386 102.54 58.146Z" fill="#A6A6A6"/>
<path d="M104.82 58.146C104.82 58.0024 104.863 57.862 104.942 57.7427C105.022 57.6233 105.136 57.5302 105.268 57.4753C105.401 57.4203 105.547 57.4059 105.688 57.434C105.828 57.462 105.958 57.5311 106.059 57.6326C106.161 57.7342 106.23 57.8635 106.258 58.0044C106.286 58.1452 106.272 58.2912 106.217 58.4238C106.162 58.5565 106.069 58.6699 105.949 58.7496C105.83 58.8294 105.69 58.872 105.546 58.872C105.451 58.872 105.356 58.8532 105.268 58.8167C105.18 58.7803 105.1 58.7268 105.033 58.6594C104.965 58.5919 104.912 58.5119 104.875 58.4238C104.839 58.3357 104.82 58.2413 104.82 58.146Z" fill="#A6A6A6"/>
<path d="M107.1 58.146C107.1 58.0022 107.143 57.8616 107.223 57.742C107.303 57.6225 107.417 57.5295 107.55 57.4747C107.683 57.4199 107.829 57.4059 107.97 57.4344C108.111 57.4629 108.24 57.5327 108.341 57.6348C108.443 57.7369 108.511 57.8669 108.539 58.0081C108.566 58.1493 108.551 58.2955 108.495 58.428C108.439 58.5606 108.345 58.6735 108.225 58.7526C108.105 58.8316 107.964 58.8732 107.82 58.872C107.725 58.872 107.631 58.8532 107.543 58.8166C107.455 58.7801 107.376 58.7265 107.309 58.659C107.242 58.5915 107.189 58.5114 107.153 58.4234C107.117 58.3353 107.099 58.2411 107.1 58.146Z" fill="#A6A6A6"/>
<path d="M109.38 58.146C109.38 58.0022 109.423 57.8616 109.503 57.742C109.583 57.6225 109.697 57.5295 109.83 57.4747C109.963 57.4199 110.109 57.4059 110.25 57.4344C110.391 57.4629 110.52 57.5327 110.621 57.6348C110.723 57.7369 110.791 57.8669 110.819 58.0081C110.846 58.1493 110.831 58.2955 110.775 58.428C110.719 58.5606 110.625 58.6735 110.505 58.7526C110.385 58.8316 110.244 58.8732 110.1 58.872C110.005 58.872 109.911 58.8532 109.823 58.8166C109.735 58.7801 109.656 58.7265 109.589 58.659C109.522 58.5915 109.469 58.5114 109.433 58.4234C109.397 58.3353 109.379 58.2411 109.38 58.146Z" fill="#A6A6A6"/>
<path d="M111.654 58.146C111.654 58.0024 111.697 57.862 111.776 57.7427C111.856 57.6233 111.97 57.5302 112.102 57.4753C112.235 57.4203 112.381 57.4059 112.522 57.434C112.662 57.462 112.792 57.5311 112.893 57.6326C112.995 57.7342 113.064 57.8635 113.092 58.0044C113.12 58.1452 113.106 58.2912 113.051 58.4238C112.996 58.5565 112.903 58.6699 112.783 58.7496C112.664 58.8294 112.524 58.872 112.38 58.872C112.187 58.872 112.003 58.7955 111.867 58.6594C111.73 58.5232 111.654 58.3386 111.654 58.146Z" fill="#A6A6A6"/>
<path d="M196.38 59.73H190.488V57H196.38V59.73ZM190.788 59.43H196.08V57.3H190.8L190.788 59.43Z" fill="#A6A6A6"/>
<path d="M194.778 57.462H190.98V59.262H194.778V57.462Z" fill="#A6A6A6"/>
<path d="M196.902 57.636H196.38V59.094H196.902V57.636Z" fill="#A6A6A6"/>
<path d="M156.27 45.072H143.736V74.562H156.27V45.072Z" fill="#88C653"/>
<path d="M156.264 74.556C156.264 74.556 155.064 80.556 150 80.556C144.936 80.556 143.736 74.556 143.736 74.556H156.264Z" fill="#88C653"/>
<path opacity="0.1" d="M156.264 74.556C156.264 74.556 155.064 80.556 150 80.556C144.936 80.556 143.736 74.556 143.736 74.556H156.264Z" fill="black"/>
<path d="M143.73 74.562H131.196L132.474 45.072H143.73V74.562Z" fill="white"/>
<path d="M143.73 74.562L131.196 74.64H131.112C131.112 74.64 132.312 45.108 132.312 45.066V44.922H132.45H143.706H143.832C143.88 45.036 143.754 59.7 143.784 59.82L143.706 74.532L143.73 74.562ZM143.73 74.562L143.652 59.784L143.61 45.072L143.73 45.192L132.474 45.222L132.624 45.078C132.582 45.078 131.388 74.91 131.196 74.478L143.73 74.556V74.562Z" fill="#263238"/>
<path d="M143.736 74.556C143.736 74.556 142.536 80.556 137.46 80.556C132.384 80.556 131.196 74.556 131.196 74.556H143.736Z" fill="black"/>
<path d="M131.196 74.562H118.662L121.218 45.072H132.474L131.196 74.562Z" fill="#88C653"/>
<path d="M131.196 74.556C131.196 74.556 129.996 80.556 124.926 80.556C119.856 80.556 118.662 74.556 118.662 74.556H131.196Z" fill="#88C653"/>
<path opacity="0.1" d="M131.196 74.556C131.196 74.556 129.996 80.556 124.926 80.556C119.856 80.556 118.662 74.556 118.662 74.556H131.196Z" fill="black"/>
<path d="M118.656 74.562H106.122L109.962 45.072H121.218L118.656 74.562Z" fill="white"/>
<path d="M118.656 74.562L106.122 74.64H106.032C106.032 74.64 109.8 45.102 109.8 45.054V44.922H109.932H121.188H121.32V45.054L120 59.856L118.644 74.562H118.656ZM118.656 74.562L119.856 59.778L121.092 45.06L121.212 45.192L109.956 45.222L110.1 45.09C110.058 45.09 106.29 74.934 106.116 74.49L118.65 74.568L118.656 74.562Z" fill="#263238"/>
<path d="M118.656 74.556C118.656 74.556 117.456 80.556 112.386 80.556C107.316 80.556 106.122 74.556 106.122 74.556H118.656Z" fill="black"/>
<path d="M106.122 74.562H93.588L98.706 45.072H109.956L106.122 74.562Z" fill="#88C653"/>
<path d="M106.122 74.556C106.122 74.556 104.922 80.556 99.858 80.556C94.794 80.556 93.582 74.556 93.582 74.556H106.122Z" fill="#88C653"/>
<path opacity="0.1" d="M106.122 74.556C106.122 74.556 104.922 80.556 99.858 80.556C94.794 80.556 93.582 74.556 93.582 74.556H106.122Z" fill="black"/>
<path d="M93.6 74.562H81.048L86.646 48.762C87.108 46.632 89.376 45.078 92.046 45.078H98.7L93.6 74.562Z" fill="white"/>
<path d="M93.6 74.562L81.066 74.64H80.97V74.544C81.756 70.878 85.53 53.292 86.226 50.034C86.3464 49.1901 86.5869 48.3678 86.94 47.592C88.266 45.192 91.206 44.766 93.69 44.934H98.7H98.85L98.82 45.072L96.216 59.844L93.6 74.562ZM93.6 74.562L96.084 59.772L98.598 45.048L98.718 45.192H93.708C91.308 45.048 88.506 45.432 87.21 47.724C86.8682 48.4729 86.6359 49.267 86.52 50.082L85.446 54.978L81.144 74.568L81.066 74.472L93.6 74.55V74.562Z" fill="#263238"/>
<path d="M93.6 74.556C93.6 74.556 92.4 80.556 87.336 80.556C82.272 80.556 81.072 74.556 81.072 74.556H93.6Z" fill="black"/>
<path d="M156.27 74.562H168.804L167.526 45.072H156.27V74.562Z" fill="white"/>
<path d="M156.27 74.562L168.804 74.484L168.726 74.562L167.4 45.078L167.55 45.222L156.294 45.192L156.414 45.072L156.372 59.784L156.294 74.562H156.27ZM156.27 74.562L156.192 59.85L156.15 45.072V44.952H156.276H167.532H167.67V45.096C167.67 45.204 168.87 74.574 168.87 74.67H168.786L156.252 74.592L156.27 74.562Z" fill="#263238"/>
<path d="M168.804 74.556C168.804 74.556 167.604 80.556 162.54 80.556C157.476 80.556 156.264 74.556 156.264 74.556H168.804Z" fill="black"/>
<path d="M168.804 74.562H181.338L178.782 45.072H167.526L168.804 74.562Z" fill="#88C653"/>
<path d="M181.338 74.556C181.338 74.556 180.138 80.556 175.074 80.556C170.01 80.556 168.804 74.556 168.804 74.556H181.338Z" fill="#88C653"/>
<path opacity="0.1" d="M181.338 74.556C181.338 74.556 180.138 80.556 175.074 80.556C170.01 80.556 168.804 74.556 168.804 74.556H181.338Z" fill="black"/>
<path d="M181.344 74.562H193.878L190.038 45.072H178.782L181.344 74.562Z" fill="white"/>
<path d="M181.344 74.562L193.878 74.484C193.704 75.024 189.954 44.97 189.894 45.084L190.038 45.216L178.8 45.192L178.92 45.06C179.55 52.41 180.768 67.206 181.362 74.562H181.344ZM181.344 74.562L180 59.856L178.674 45.084V44.952H178.8H190.056H190.2C190.242 45.168 193.962 74.442 193.998 74.67H193.908L181.374 74.592L181.344 74.562Z" fill="#263238"/>
<path d="M193.878 74.556C193.878 74.556 192.678 80.556 187.614 80.556C182.55 80.556 181.344 74.556 181.344 74.556H193.878Z" fill="black"/>
<path d="M193.878 74.562H206.412L201.294 45.072H190.044L193.878 74.562Z" fill="#88C653"/>
<path d="M206.4 74.556C206.4 74.556 205.2 80.556 200.124 80.556C195.048 80.556 193.86 74.556 193.86 74.556H206.4Z" fill="#88C653"/>
<path opacity="0.1" d="M206.4 74.556C206.4 74.556 205.2 80.556 200.124 80.556C195.048 80.556 193.86 74.556 193.86 74.556H206.4Z" fill="black"/>
<path d="M206.4 74.562H218.934L213.336 48.762C212.874 46.632 210.606 45.078 207.936 45.078H201.3L206.4 74.562Z" fill="white"/>
<path d="M206.4 74.562L218.934 74.484L218.856 74.58L214.554 54.99L213.48 50.094C213.364 49.279 213.132 48.4849 212.79 47.736C211.494 45.444 208.704 45.06 206.292 45.204H201.282L201.402 45.06C202.686 52.398 205.2 67.2 206.4 74.562ZM206.4 74.562L203.766 59.862L201.18 45.09L201.15 44.952H201.3H206.31C209.232 44.718 212.79 45.552 213.51 48.822C214.41 53.022 218.07 70.074 219.03 74.562V74.658H218.934L206.4 74.562Z" fill="#263238"/>
<path d="M218.946 74.556C218.946 74.556 217.746 80.556 212.682 80.556C207.618 80.556 206.418 74.556 206.418 74.556H218.946Z" fill="black"/>
<path d="M179.166 132.318H120.84V190.644H179.166V132.318Z" fill="#88C653"/>
<path d="M169.164 160.236H130.836V154.8H169.164V160.236Z" fill="white"/>
<path d="M167.028 159.084L165.762 179.25H134.244L132.972 159.084H167.028Z" fill="white"/>
<path d="M154.074 156.906C154.074 157.712 153.835 158.499 153.387 159.169C152.94 159.839 152.303 160.362 151.559 160.67C150.815 160.978 149.995 161.059 149.205 160.902C148.415 160.745 147.689 160.357 147.119 159.787C146.549 159.217 146.161 158.491 146.004 157.701C145.847 156.911 145.928 156.091 146.236 155.347C146.544 154.603 147.067 153.966 147.737 153.519C148.407 153.071 149.194 152.832 150 152.832C151.08 152.834 152.115 153.263 152.879 154.027C153.643 154.791 154.072 155.826 154.074 156.906Z" fill="white"/>
<path d="M144.636 163.446V175.05C144.638 175.187 144.612 175.322 144.561 175.449C144.51 175.575 144.434 175.69 144.338 175.788C144.242 175.885 144.128 175.962 144.002 176.014C143.876 176.067 143.741 176.094 143.604 176.094H143.436C143.323 176.093 143.212 176.07 143.108 176.026C143.004 175.983 142.91 175.919 142.831 175.838C142.752 175.758 142.689 175.663 142.647 175.559C142.605 175.454 142.583 175.343 142.584 175.23V163.446C142.586 163.221 142.676 163.005 142.835 162.845C142.995 162.686 143.211 162.596 143.436 162.594H143.772C143.885 162.592 143.997 162.613 144.102 162.655C144.207 162.697 144.302 162.76 144.382 162.839C144.463 162.919 144.526 163.013 144.57 163.117C144.614 163.221 144.636 163.333 144.636 163.446Z" fill="#88C653"/>
<path d="M151.02 163.446V175.05C151.022 175.187 150.996 175.322 150.945 175.449C150.894 175.575 150.818 175.69 150.722 175.788C150.626 175.885 150.512 175.962 150.386 176.014C150.26 176.067 150.125 176.094 149.988 176.094H149.82C149.707 176.093 149.596 176.07 149.492 176.026C149.388 175.983 149.294 175.919 149.215 175.838C149.136 175.758 149.073 175.663 149.031 175.559C148.989 175.454 148.967 175.343 148.968 175.23V163.446C148.971 163.222 149.062 163.007 149.221 162.849C149.381 162.691 149.596 162.602 149.82 162.6H150.156C150.268 162.598 150.38 162.619 150.484 162.661C150.589 162.703 150.684 162.765 150.764 162.843C150.844 162.922 150.908 163.016 150.952 163.119C150.996 163.222 151.019 163.334 151.02 163.446Z" fill="#88C653"/>
<path d="M157.404 163.446V175.05C157.406 175.187 157.38 175.322 157.329 175.449C157.278 175.575 157.202 175.69 157.106 175.788C157.01 175.885 156.896 175.962 156.77 176.014C156.644 176.067 156.509 176.094 156.372 176.094H156.204C156.091 176.093 155.98 176.07 155.876 176.026C155.772 175.983 155.678 175.919 155.599 175.838C155.52 175.758 155.457 175.663 155.415 175.559C155.373 175.454 155.351 175.343 155.352 175.23V163.446C155.354 163.221 155.444 163.005 155.603 162.845C155.763 162.686 155.979 162.596 156.204 162.594H156.54C156.653 162.592 156.765 162.613 156.87 162.655C156.975 162.697 157.07 162.76 157.15 162.839C157.231 162.919 157.294 163.013 157.338 163.117C157.382 163.221 157.404 163.333 157.404 163.446Z" fill="#88C653"/>
<path d="M161.178 156.576H159.378V145.8H140.622V156.576H138.822V144H161.178V156.576Z" fill="white"/>
<path d="M186.213 138.747C189.756 134.851 189.47 128.822 185.575 125.278C181.68 121.735 175.65 122.021 172.107 125.916C168.564 129.811 168.849 135.841 172.745 139.384C176.64 142.927 182.67 142.642 186.213 138.747Z" fill="black"/>
<path d="M181.14 131.328C181.453 131.633 181.701 131.998 181.87 132.401C182.039 132.804 182.125 133.237 182.124 133.674C182.126 134.335 181.931 134.982 181.565 135.533C181.199 136.083 180.677 136.512 180.066 136.766C179.455 137.019 178.783 137.085 178.134 136.956C177.486 136.826 176.891 136.507 176.424 136.038C176.344 135.97 176.278 135.886 176.232 135.791C176.186 135.697 176.16 135.593 176.155 135.488C176.151 135.383 176.169 135.278 176.207 135.18C176.245 135.082 176.304 134.992 176.378 134.918C176.452 134.844 176.542 134.785 176.64 134.747C176.738 134.709 176.843 134.691 176.948 134.695C177.053 134.7 177.157 134.726 177.251 134.772C177.346 134.818 177.43 134.884 177.498 134.964C177.666 135.132 177.865 135.265 178.084 135.356C178.304 135.446 178.539 135.493 178.776 135.492C179.015 135.494 179.253 135.449 179.474 135.358C179.696 135.267 179.897 135.133 180.066 134.964C180.238 134.796 180.374 134.595 180.466 134.374C180.559 134.152 180.607 133.914 180.606 133.674C180.607 133.436 180.56 133.201 180.467 132.983C180.374 132.764 180.238 132.566 180.066 132.402C179.899 132.232 179.7 132.097 179.481 132.004C179.262 131.911 179.026 131.863 178.788 131.862C178.684 131.868 178.579 131.849 178.484 131.807C178.388 131.766 178.303 131.702 178.236 131.622C178.095 131.477 178.017 131.284 178.017 131.082C178.017 130.88 178.095 130.687 178.236 130.542L179.604 129.15H177.426C177.236 129.133 177.06 129.046 176.931 128.905C176.803 128.765 176.732 128.581 176.732 128.391C176.732 128.201 176.803 128.017 176.931 127.877C177.06 127.736 177.236 127.649 177.426 127.632H181.392C181.492 127.63 181.591 127.649 181.684 127.686C181.776 127.722 181.861 127.777 181.932 127.847C182.004 127.917 182.061 128 182.1 128.092C182.139 128.184 182.159 128.282 182.16 128.382C182.157 128.508 182.124 128.631 182.064 128.742C182.028 128.811 181.984 128.876 181.932 128.934L180.234 130.68C180.575 130.836 180.882 131.056 181.14 131.328Z" fill="white"/>
<path d="M171.408 64.8C171.669 67.3011 172.62 69.6806 174.155 71.6726C175.689 73.6646 177.748 75.1909 180.1 76.0809C182.452 76.9709 185.005 77.1896 187.474 76.7127C189.943 76.2357 192.231 75.0819 194.082 73.38L200.868 74.4L197.472 68.532C198.323 66.4659 198.645 64.22 198.408 61.998C198.033 58.4176 196.252 55.1327 193.455 52.8659C190.658 50.5992 187.075 49.5362 183.495 49.911C179.915 50.2857 176.63 52.0675 174.363 54.8642C172.096 57.6609 171.033 61.2436 171.408 64.824V64.8Z" fill="white"/>
<path d="M175.47 53.586C177.726 51.3885 180.67 50.0351 183.807 49.7535C186.944 49.4719 190.082 50.2794 192.693 52.04C195.304 53.8006 197.23 56.4069 198.145 59.4203C199.06 62.4338 198.909 65.6706 197.718 68.586V68.352L201.096 74.232L201.348 74.67L200.856 74.592L194.07 73.548L194.232 73.5C192.346 75.2087 190.021 76.3578 187.518 76.818C186.898 76.933 186.27 76.9972 185.64 77.01C185.012 77.0431 184.382 77.031 183.756 76.974C182.504 76.8545 181.274 76.5617 180.102 76.104C178.931 75.6613 177.828 75.0553 176.826 74.304C176.323 73.9368 175.846 73.5359 175.398 73.104C174.958 72.6592 174.547 72.1862 174.168 71.688C172.134 69.0357 171.144 65.7287 171.387 62.3949C171.631 59.0611 173.09 55.9328 175.488 53.604L175.47 53.586ZM174.186 71.64C174.937 72.6387 175.837 73.5151 176.856 74.238C177.853 74.9834 178.955 75.5778 180.126 76.002C181.293 76.4345 182.515 76.7031 183.756 76.8C184.373 76.842 184.993 76.842 185.61 76.8C186.229 76.7721 186.845 76.6959 187.452 76.572C189.888 76.0838 192.139 74.9241 193.95 73.224L194.016 73.164H194.112L200.904 74.118L200.664 74.472L197.244 68.616L197.184 68.508L197.232 68.382C197.984 66.5071 198.31 64.4884 198.186 62.472C198.052 60.4527 197.463 58.4898 196.464 56.73C195.447 54.977 194.061 53.4661 192.402 52.302C190.728 51.1458 188.811 50.3885 186.798 50.088C184.14 49.6792 181.42 50.0789 178.991 51.2353C176.563 52.3916 174.538 54.2512 173.179 56.5728C171.821 58.8943 171.192 61.5705 171.374 64.2541C171.555 66.9377 172.539 69.5047 174.198 71.622L174.186 71.64Z" fill="#263238"/>
<path d="M183.414 71.118L177.612 65.25L179.562 63.33L182.946 66.756L189.984 55.728L192.288 57.198L183.414 71.118Z" fill="#88C653"/>
<path d="M138.696 276.336H74.028L83.46 210.462H129.27L138.696 276.336Z" fill="#37474F"/>
<path d="M129.264 210.462L122.082 276.336H138.696L129.264 210.462Z" fill="#455A64"/>
<path d="M96.36 215.004L94.338 214.578C94.338 214.518 95.538 208.986 96.774 203.4C98.13 197.364 104.07 194.586 109.032 195.384C112.746 195.984 116.862 198.882 116.232 205.074C115.566 211.674 115.032 214.824 115.032 214.956L112.992 214.626C112.992 214.626 113.508 211.422 114.162 204.87C114.636 200.112 111.642 197.904 108.678 197.424C104.664 196.776 99.858 199.002 98.766 203.85C97.542 209.4 96.372 214.95 96.36 215.004Z" fill="#263238"/>
<path d="M122.958 275.832C124.284 274.884 125.664 274.032 127.038 273.15C128.412 272.268 129.816 271.47 131.238 270.666L131.43 270.552L131.61 270.684C132.702 271.506 133.794 272.328 134.856 273.192C135.918 274.056 136.986 274.908 138.006 275.826C136.806 275.118 135.69 274.362 134.562 273.588C133.434 272.814 132.312 272.034 131.208 271.23H131.574C130.176 272.052 128.754 272.844 127.326 273.63C125.898 274.416 124.44 275.154 122.958 275.832Z" fill="white"/>
<path d="M131.4 270.96C131.118 266.76 130.908 262.56 130.71 258.36C130.512 254.16 130.368 249.96 130.2 245.76C130.032 241.56 129.936 237.36 129.846 233.16L129.732 226.8C129.732 224.7 129.678 222.6 129.684 220.488C129.834 222.588 129.936 224.688 130.068 226.788L130.38 233.094C130.578 237.294 130.716 241.494 130.884 245.694C131.052 249.894 131.148 254.094 131.232 258.294C131.316 262.494 131.4 266.748 131.4 270.96Z" fill="white"/>
<path d="M98.094 214.8C98.0952 215.344 97.9349 215.876 97.6334 216.329C97.3319 216.782 96.9028 217.135 96.4004 217.344C95.898 217.552 95.345 217.607 94.8114 217.501C94.2778 217.396 93.7876 217.134 93.4029 216.749C93.0182 216.364 92.7564 215.874 92.6505 215.341C92.5447 214.807 92.5996 214.254 92.8083 213.752C93.0171 213.249 93.3702 212.82 93.823 212.519C94.2759 212.217 94.808 212.057 95.352 212.058C96.0787 212.06 96.7753 212.349 97.2891 212.863C97.803 213.377 98.0924 214.073 98.094 214.8Z" fill="#263238"/>
<path d="M116.568 214.8C116.569 215.344 116.409 215.876 116.107 216.329C115.806 216.782 115.377 217.135 114.874 217.344C114.372 217.552 113.819 217.607 113.285 217.501C112.752 217.396 112.262 217.134 111.877 216.749C111.492 216.364 111.23 215.874 111.125 215.341C111.019 214.807 111.074 214.254 111.282 213.752C111.491 213.249 111.844 212.82 112.297 212.519C112.75 212.217 113.282 212.057 113.826 212.058C114.553 212.06 115.249 212.349 115.763 212.863C116.277 213.377 116.566 214.073 116.568 214.8Z" fill="#263238"/>
<path d="M105.576 276.336H49.326L57.528 219.036H97.374L105.576 276.336Z" fill="#88C653"/>
<path d="M97.374 219.036L91.122 276.336H105.576L97.374 219.036Z" fill="#88C653"/>
<path opacity="0.1" d="M97.374 219.036L91.122 276.336H105.576L97.374 219.036Z" fill="black"/>
<path d="M68.754 222.99L66.99 222.618C66.99 222.57 68.022 217.752 69.114 212.898C70.314 207.642 75.456 205.23 79.77 205.926C83.004 206.448 86.586 208.968 86.046 214.326C85.446 220.092 85.026 222.81 85.008 222.924L83.208 222.636C83.208 222.606 83.652 219.852 84.228 214.152C84.642 210.012 82.032 208.092 79.428 207.672C75.942 207.108 71.76 209.046 70.812 213.264C69.78 218.136 68.76 222.942 68.754 222.99Z" fill="#263238"/>
<path d="M91.884 275.898C93.042 275.076 94.236 274.32 95.436 273.57C96.636 272.82 97.836 272.1 99.084 271.404L99.252 271.308L99.402 271.422C100.356 272.136 101.304 272.85 102.228 273.6C103.152 274.35 104.082 275.094 104.97 275.892C103.95 275.292 102.954 274.62 101.97 273.948C100.986 273.276 100.014 272.592 99.054 271.896H99.378C98.178 272.61 96.924 273.3 95.676 273.972C94.428 274.644 93.174 275.31 91.884 275.898Z" fill="white"/>
<path d="M99.228 271.656C98.982 268.002 98.796 264.348 98.628 260.694C98.46 257.04 98.334 253.38 98.184 249.72C98.034 246.06 97.956 242.406 97.878 238.746L97.776 233.256C97.776 231.426 97.728 229.596 97.734 227.766C97.866 229.566 97.956 231.42 98.07 233.244L98.34 238.728C98.514 242.388 98.634 246.042 98.784 249.702C98.934 253.362 99.012 257.016 99.084 260.676C99.156 264.336 99.228 267.996 99.228 271.656Z" fill="white"/>
<path d="M70.26 222.804C70.26 223.279 70.1192 223.743 69.8555 224.137C69.5918 224.532 69.217 224.84 68.7784 225.021C68.3399 225.203 67.8573 225.25 67.3918 225.158C66.9262 225.065 66.4986 224.837 66.1629 224.501C65.8273 224.165 65.5987 223.738 65.5061 223.272C65.4135 222.807 65.461 222.324 65.6427 221.886C65.8243 221.447 66.132 221.072 66.5266 220.808C66.9213 220.545 67.3853 220.404 67.86 220.404C68.4965 220.404 69.107 220.657 69.5571 221.107C70.0071 221.557 70.26 222.167 70.26 222.804Z" fill="#263238"/>
<path d="M86.328 222.804C86.328 223.279 86.1872 223.743 85.9235 224.137C85.6598 224.532 85.285 224.84 84.8464 225.021C84.4079 225.203 83.9253 225.25 83.4598 225.158C82.9942 225.065 82.5666 224.837 82.231 224.501C81.8953 224.165 81.6667 223.738 81.5741 223.272C81.4815 222.807 81.529 222.324 81.7107 221.886C81.8923 221.447 82.2 221.072 82.5946 220.808C82.9893 220.545 83.4533 220.404 83.928 220.404C84.5645 220.404 85.175 220.657 85.6251 221.107C86.0751 221.557 86.328 222.167 86.328 222.804Z" fill="#263238"/>
<path d="M236.283 161.465L236.026 178.002L231.054 192.744L227.078 191.517L228.843 178.005L228.611 159.719L236.283 161.465Z" fill="#FFB6B6"/>
<path d="M231.036 195.121C231.502 193.002 230.648 191.097 229.126 190.868C227.605 190.639 225.994 192.172 225.528 194.291C225.061 196.411 225.916 198.315 227.437 198.545C228.958 198.774 230.57 197.241 231.036 195.121Z" fill="#FFB6B6"/>
<path d="M230.249 141.775C230.249 141.775 238.767 141.872 238.76 145.616C238.756 147.73 238.207 166.925 236.68 178.586C235.503 187.578 233.255 189.924 233.255 189.924L227.872 179.801L230.249 141.775Z" fill="#FF0000"/>
<path d="M230.029 175.561H200.459C202.871 171.109 205.278 167.521 202.96 164.148L230.029 162.191C228.67 166.745 228.504 171.213 230.029 175.561Z" fill="#FF0000"/>
<path d="M226.482 136.104L215.054 135.451L210.324 140.343L207.927 140.704C204.333 141.244 201.774 143.898 201.935 146.918L202.867 164.456L230.184 166.104L236.729 143.265L228.847 140.669L226.482 136.104V136.104Z" fill="#FF0000"/>
<path d="M155.786 144.292C156.596 144.896 157.175 145.601 157.481 146.285L165.644 151.631L162.456 154.771L154.519 149.01C153.665 148.83 152.756 148.428 151.945 147.825C150.093 146.446 149.451 144.537 150.511 143.562C151.572 142.586 153.933 142.913 155.786 144.292L155.786 144.292Z" fill="#FFB6B6"/>
<path d="M213.5 148.793V148.793L182.222 166.27L159.8 153.359L163.167 148.313L180.813 156.799L197.087 146.46C202.882 141.956 210.145 142.829 213.5 148.793H213.5Z" fill="#FF0000"/>
<path d="M220.09 133.987C224.773 133.987 228.569 130.846 228.569 126.971C228.569 123.096 224.773 119.955 220.09 119.955C215.407 119.955 211.611 123.096 211.611 126.971C211.611 130.846 215.407 133.987 220.09 133.987Z" fill="#FFB6B6"/>
<path d="M231.615 125.247V126.608L222.053 124.381L214.884 125.624C214.801 124.721 214.478 123.834 213.939 123.049C214.314 124.309 214.356 125.283 213.959 125.786L212.995 125.952C212.838 125.6 212.535 125.292 212.138 125.106C212.099 125.085 212.05 125.069 212.006 125.081C211.938 125.102 211.933 125.174 211.933 125.231C211.943 125.531 211.952 125.83 211.967 126.13L209.197 126.608V125.247C206.54 120.3 213.544 116.019 220.409 115.974C223.506 115.954 226.306 117.011 228.337 118.687C230.363 120.368 231.615 122.684 231.615 125.247Z" fill="black"/>
<path d="M236.995 141.201L236.272 141.151C236.324 140.956 236.375 140.763 236.422 140.568C236.822 138.928 235.942 136.841 235.877 135.265C235.537 136.93 236.118 138.977 235.517 140.558C235.45 140.734 232.837 141.867 232.765 142.04C229.873 141.165 226.862 138.369 223.452 140.002C221.435 140.968 219.134 140.544 216.844 140.102C216.277 139.993 216.198 137.677 215.637 137.586C214.633 137.423 213.157 139.528 212.212 139.61L216.127 127.057C216.127 120.229 215.362 113.064 225.816 115.479C228.446 116.086 231.048 116.562 232.988 118.358C234.929 120.156 236.31 122.669 236.8 125.53C237.095 127.256 238.937 133.118 236.995 141.201Z" fill="black"/>
<path d="M230.244 267.433L225.577 267.524L222.975 250.175L229.863 250.04L230.244 267.433Z" fill="#FFB7B7"/>
<path d="M214.232 275.49C214.232 276.142 214.792 276.671 215.482 276.671H224.745C224.745 276.671 225.657 273.639 229.374 272.334L229.63 276.671H234.409L233.83 269.697C233.83 269.697 235.108 265.966 232.454 264.059C229.799 262.152 231.949 262.417 231.949 262.417L230.905 258.101L223.684 258.804L223.63 265.579L220.126 272.304L214.986 274.405C214.529 274.592 214.232 275.019 214.232 275.49H214.232H214.232Z" fill="#2F2E41"/>
<path d="M216.046 264.606L211.559 265.674L203.723 249.439L210.343 247.863L216.046 264.606Z" fill="#FFB7B7"/>
<path d="M203.028 275.761C203.228 276.392 203.932 276.786 204.599 276.641L213.559 274.696C213.559 274.696 213.511 271.572 216.706 269.529L218.284 273.67L222.907 272.667L220.208 266.043C220.208 266.043 220.3 262.166 217.148 260.878C213.995 259.591 216.156 259.396 216.156 259.396L213.822 255.441L207.053 257.637L209.079 264.201L207.752 271.442L203.425 274.554C203.04 274.831 202.884 275.305 203.028 275.761L203.028 275.761L203.028 275.761Z" fill="#2F2E41"/>
<path d="M227.382 174.537L230.318 175.346C234.909 182.362 236.855 191.679 236.597 202.913L231.382 253.373H222.849L216.604 197.159L205.594 218.258L213.65 253.373L205.594 254.052L189.367 217.539L200.668 175.101L227.382 174.537Z" fill="#37474F"/>
</svg>
