<svg width="28" height="28" viewBox="0 0 28 28" fill="none" xmlns="http://www.w3.org/2000/svg">
<path d="M23.359 19.2254C25.3482 18.5621 28 15.9103 28 14.5845C28 13.2586 26.0108 13.9211 26.6741 11.9328C27.3374 9.94435 28 7.95517 26.6741 6.62931C25.3482 5.30344 24.0223 6.62931 22.6964 5.30344C21.3705 3.97758 22.6964 2.65172 21.3705 1.32586C20.0446 0 18.0554 0.662536 16.0669 1.32586C14.0785 1.98919 14.7402 0 13.4143 0C12.0884 0 9.43663 2.65172 8.77329 4.64091C8.10995 6.63009 6.78484 5.30344 6.12228 7.29263C5.50705 9.13906 6.26189 11.0967 4.56686 14.9812C3.75759 16.2597 2.99329 17.4878 2.28025 18.5644C-0.857418 23.3008 0.156133 27.8439 0.156133 27.8439C0.156133 27.8439 4.69937 28.8574 9.43584 25.7198C10.5125 25.0068 11.7406 24.2425 13.0192 23.4333C16.9038 21.7375 18.8615 22.4931 20.708 21.8779C22.6964 21.2146 21.3705 19.8887 23.359 19.2254Z" fill="#5C913B"/>
<path d="M26.8193 14.8022C26.7381 14.5561 26.4738 14.4212 26.2277 14.5032C23.6958 15.3346 21.6932 15.0372 20.7057 14.7785C22.9228 12.5188 24.9152 10.1707 26.402 8.00408C26.5488 7.79034 26.4935 7.4985 26.2806 7.3518C26.0668 7.20431 25.775 7.26031 25.6291 7.47326C24.7756 8.71631 23.7337 10.0374 22.5703 11.3728C22.6349 9.98065 22.519 7.81084 21.5236 5.66391C21.414 5.42887 21.1355 5.32712 20.9013 5.43597C20.6662 5.54481 20.5637 5.82323 20.6733 6.05828C21.9976 8.91586 21.6151 11.9075 21.511 12.5535C20.4312 13.7279 19.2733 14.8984 18.0752 16.0255C18.1982 14.5482 18.1414 12.1434 16.8455 10.2386C16.7011 10.0248 16.4101 9.96803 16.1948 10.1139C15.981 10.2599 15.925 10.5509 16.0709 10.7654C17.6145 13.0362 17.1334 16.2889 17.0001 17.0162C15.0755 18.7514 13.0934 20.3375 11.2185 21.6192C12.4292 19.6679 13.6999 16.595 12.796 13.0654C12.7313 12.8146 12.4758 12.6623 12.2257 12.7278C11.9749 12.7925 11.8235 13.0472 11.8882 13.2981C13.2125 18.4698 9.2616 22.7526 8.90823 23.1225C4.64343 25.7695 2.30398 26.5677 2.27716 26.5764C2.03186 26.6584 1.89935 26.9226 1.98138 27.1687C2.04685 27.3651 2.22905 27.4897 2.42545 27.4897C2.47435 27.4897 2.52404 27.4819 2.57295 27.4661C2.69915 27.4235 5.72482 26.3981 11.2934 22.7053C12.3701 21.9915 13.4767 21.1783 14.5873 20.2997C15.1355 20.6357 16.3919 21.1996 18.6588 21.1996C19.293 21.1996 20.0044 21.1546 20.8019 21.0497C21.0582 21.0158 21.2389 20.78 21.2049 20.5237C21.1718 20.2673 20.9297 20.0859 20.6788 20.1206C17.7573 20.5087 16.1222 20.0133 15.3808 19.6624C16.9378 18.3854 18.4861 16.9838 19.9548 15.5333C20.4414 15.7053 21.4707 15.9955 22.9008 15.9955C23.9254 15.9955 25.1519 15.8465 26.5227 15.3953C26.7665 15.3125 26.8997 15.0475 26.8193 14.8022Z" fill="#679E44"/>
<path d="M9.86097 18.9903C10.2206 18.9193 10.6568 18.8468 11.1309 18.7687C14.1368 18.2694 17.2453 17.7528 17.2453 15.8275C17.2453 14.8487 16.7216 14.2642 16.3769 13.9061C16.5741 13.8462 16.8423 13.7902 17.0276 13.75C17.8716 13.5709 18.9222 13.3477 19.3805 12.417C19.6636 11.842 19.6273 11.1487 19.2677 10.3387C19.5958 10.0966 20.5139 9.80394 21.0881 9.62174C22.5047 9.17058 23.8432 8.74388 24.2108 7.64675C24.3394 7.265 24.3867 6.66083 23.8882 5.9557C23.8819 5.94703 23.8724 5.9281 23.8661 5.91627C23.4757 5.85001 23.086 5.69227 22.6956 5.30263C22.4487 5.05576 22.2941 4.80889 22.1971 4.56201C22.3817 5.07074 22.8636 6.21362 23.0829 6.5228C24.6849 8.78805 17.3084 8.52145 18.3314 10.6613C19.5469 13.2026 16.0385 12.4012 15.376 13.3958C14.7126 14.3904 16.2601 14.5008 16.2601 15.8267C16.2601 17.1526 11.728 17.6179 9.67088 18.0218C5.51493 18.8397 0.155334 27.8438 0.155334 27.8438C0.155334 27.8438 0.556022 27.9306 1.23041 27.974C2.84894 25.3522 6.95441 19.5614 9.86097 18.9903Z" fill="#3E721D"/>
<path d="M9.67089 18.0234C11.728 17.6195 16.2602 17.1542 16.2602 15.8283C16.2602 14.5024 14.7134 14.392 15.376 13.3974C16.0393 12.4028 19.5469 13.2042 18.3314 10.6629C17.3076 8.52306 24.6849 8.78965 23.0829 6.5244C22.8289 6.16553 22.22 4.68271 22.1324 4.37195C21.8461 3.35685 22.3856 2.34175 21.3697 1.32665C20.0438 0.00078877 18.0546 0.663325 16.0661 1.32665C14.0777 1.98997 14.7402 0 13.4143 0C12.0884 0 9.43663 2.65172 8.77329 4.64091C8.10995 6.63009 6.78484 5.30344 6.12228 7.29263C5.50705 9.13906 6.26189 11.0967 4.56686 14.9812C3.75759 16.2597 2.99329 17.4878 2.28025 18.5644C-0.857418 23.3008 0.156133 27.8439 0.156133 27.8439C0.156133 27.8439 5.51494 18.8397 9.67089 18.0234Z" fill="#77B255"/>
<path d="M22.2027 6.34297C20.0549 5.34759 17.8842 5.23165 16.4921 5.29711C17.8274 4.13294 19.1478 3.09102 20.3917 2.2384C20.6054 2.0917 20.6599 1.79987 20.5132 1.58612C20.3664 1.37316 20.0746 1.31874 19.8616 1.46466C17.6949 2.95063 15.3468 4.94376 13.087 7.16089C12.8275 6.17261 12.5302 4.1708 13.3623 1.63897C13.4435 1.39288 13.3094 1.12787 13.0634 1.04742C12.8188 0.966176 12.553 1.10026 12.4718 1.34635C11.3943 4.6259 12.038 7.0765 12.333 7.91492C10.8824 9.38354 9.48083 10.931 8.20383 12.4888C7.85284 11.7474 7.35907 10.1123 7.74635 7.18928C7.78027 6.93295 7.59964 6.69711 7.3433 6.6632C7.0909 6.62928 6.8519 6.80833 6.8172 7.06545C6.33369 10.7173 7.13822 12.5795 7.56731 13.2799C6.68784 14.3904 5.87542 15.497 5.1616 16.5736C1.46786 22.1421 0.442474 25.1677 0.40067 25.2931C0.31864 25.5392 0.451939 25.8034 0.697242 25.8854C0.746145 25.902 0.795837 25.9091 0.845528 25.9091C1.04193 25.9091 1.22492 25.7853 1.29039 25.5889C1.29906 25.562 2.09728 23.2234 4.74356 18.9588C5.10875 18.607 9.38302 14.6483 14.5683 15.9789C14.816 16.0412 15.0747 15.8914 15.1386 15.6406C15.2025 15.3897 15.0518 15.1342 14.8002 15.0695C11.2705 14.1672 8.19594 15.4386 6.24377 16.6494C7.5255 14.7737 9.11248 12.7901 10.8485 10.8648C11.5766 10.7315 14.8294 10.2519 17.0994 11.7955C17.1807 11.8499 17.2722 11.8767 17.3621 11.8767C17.5119 11.8767 17.6602 11.805 17.7501 11.6717C17.8961 11.4579 17.8401 11.1661 17.6263 11.0202C15.7207 9.72506 13.3158 9.66827 11.8384 9.79132C12.9648 8.59402 14.1353 7.43616 15.3097 6.35638C15.9518 6.25069 18.9364 5.86342 21.8059 7.19323C21.8698 7.2232 21.9369 7.2374 22.0031 7.2374C22.1798 7.2374 22.3486 7.13644 22.4283 6.96528C22.5403 6.73024 22.4377 6.45103 22.2027 6.34297Z" fill="#A6D388"/>
</svg>
